{
  "accessors": [
    {
      "bufferView": 2,
      "componentType": 5126,
      "count": 549,
      "max": [
        -2.4224460124969482,
        -0.18693183362483978,
        6.2547597885131836
      ],
      "min": [
        -4.7541608810424805,
        -0.89198577404022217,
        4.2854056358337402
      ],
      "type": "VEC3"
    },
    {
      "bufferView": 2,
      "byteOffset": 6588,
      "componentType": 5126,
      "count": 549,
      "max": [
        0.86051511764526367,
        1,
        0.93528628349304199
      ],
      "min": [
        -0.86051511764526367,
        -1,
        -0.93528628349304199
      ],
      "type": "VEC3"
    },
    {
      "bufferView": 3,
      "componentType": 5126,
      "count": 549,
      "max": [
        0.93528634309768677,
        1,
        0.86051517724990845,
        1
      ],
      "min": [
        -0.86051696538925171,
        -1,
        -0.86051595211029053,
        -1
      ],
      "type": "VEC4"
    },
    {
      "bufferView": 1,
      "componentType": 5126,
      "count": 549,
      "max": [
        0.99532008171081543,
        0.80442017316818237
      ],
      "min": [
        0,
        0
      ],
      "type": "VEC2"
    },
    {
      "bufferView": 0,
      "componentType": 5125,
      "count": 1740,
      "max": [
        548
      ],
      "min": [
        0
      ],
      "type": "SCALAR"
    }
  ],
  "asset": {
    "extras": {
      "author": "andrew.carmichael (https://sketchfab.com/andrew.carmichael)",
      "license": "CC-BY-4.0 (http://creativecommons.org/licenses/by/4.0/)",
      "source": "https://sketchfab.com/models/1340ca2440264b85b53a06def0b7cc87",
      "title": "R/GA_Arrows_1"
    },
    "generator": "Sketchfab-3.41.0",
    "version": "2.0"
  },
  "bufferViews": [
    {
      "buffer": 0,
      "byteLength": 6960,
      "byteOffset": 0,
      "name": "floatBufferViews",
      "target": 34963
    },
    {
      "buffer": 0,
      "byteLength": 4392,
      "byteOffset": 6960,
      "byteStride": 8,
      "name": "floatBufferViews",
      "target": 34962
    },
    {
      "buffer": 0,
      "byteLength": 13176,
      "byteOffset": 11352,
      "byteStride": 12,
      "name": "floatBufferViews",
      "target": 34962
    },
    {
      "buffer": 0,
      "byteLength": 8784,
      "byteOffset": 24528,
      "byteStride": 16,
      "name": "floatBufferViews",
      "target": 34962
    }
  ],
  "buffers": [
    {
      "byteLength": 33312,
      "uri": "scene.bin"
    }
  ],
  "materials": [
    {
      "doubleSided": true,
      "name": "material_0",
      "pbrMetallicRoughness": {
        "baseColorFactor": [
          0.087156340600000007,
          0.58251811760000005,
          0.81036995099999998,
          1
        ],
        "metallicFactor": 0.3187881098,
        "roughnessFactor": 1
      }
    }
  ],
  "meshes": [
    {
      "primitives": [
        {
          "attributes": {
            "NORMAL": 1,
            "POSITION": 0,
            "TANGENT": 2,
            "TEXCOORD_0": 3
          },
          "indices": 4,
          "material": 0,
          "mode": 4
        }
      ]
    }
  ],
  "nodes": [
    {
      "children": [
        1
      ],
      "name": "RootNode (gltf orientation matrix)",
      "rotation": [
        -0.70710678118654746,
        -0,
        -0,
        0.70710678118654757
      ]
    },
    {
      "children": [
        2
      ],
      "name": "RootNode (model correction matrix)"
    },
    {
      "children": [
        3
      ],
      "name": "5c4d9b11c02048ed9ced459847db3f9a.obj.cleaner.materialmerger.gles"
    },
    {
      "mesh": 0,
      "name": ""
    }
  ],
  "scene": 0,
  "scenes": [
    {
      "name": "OSG_Scene",
      "nodes": [
        0
      ]
    }
  ]
}

